<?xml version="1.0" encoding="utf-8"?>
<!-- Generator: Adobe Illustrator 26.0.0, SVG Export Plug-In . SVG Version: 6.00 Build 0)  -->
<svg version="1.1" id="Capa_1" xmlns="http://www.w3.org/2000/svg" xmlns:xlink="http://www.w3.org/1999/xlink" x="0px" y="0px"
	 viewBox="0 0 432.88 401.37" style="enable-background:new 0 0 432.88 401.37;" xml:space="preserve">
<style type="text/css">
	.st0{fill:#FFE13E;}
	.st1{fill:#FFFFFF;}
</style>
<polygon class="st0" points="221.87,267.68 183.67,305.88 164.56,286.78 183.67,267.68 202.77,248.58 "/>
<polygon class="st0" points="279.17,286.78 260.07,305.88 240.97,286.78 221.87,267.68 240.97,248.58 260.07,267.68 "/>
<polygon class="st1" points="279.17,324.98 260.07,344.08 240.97,363.18 221.87,382.28 183.67,344.08 164.56,324.98 183.67,305.88 
	221.87,344.08 240.97,324.98 260.07,305.88 "/>
<polygon class="st0" points="279.21,210.4 317.41,248.6 298.31,267.71 279.21,248.6 260.11,229.5 "/>
<polygon class="st0" points="298.31,153.1 317.41,172.2 298.31,191.3 279.21,210.4 260.11,191.3 279.21,172.2 "/>
<polygon class="st1" points="336.51,153.1 355.61,172.2 374.71,191.3 393.81,210.4 355.61,248.6 336.51,267.71 317.41,248.6 
	355.61,210.4 336.51,191.3 317.41,172.2 "/>
<polygon class="st0" points="221.69,152.87 259.89,114.67 279,133.77 259.89,152.87 240.79,171.97 "/>
<polygon class="st0" points="164.39,133.77 183.49,114.67 202.59,133.77 221.69,152.87 202.59,171.97 183.49,152.87 "/>
<polygon class="st1" points="164.39,95.57 183.49,76.47 202.59,57.37 221.69,38.27 259.89,76.47 279,95.57 259.89,114.67 
	221.69,76.47 202.59,95.57 183.49,114.67 "/>
<polygon class="st0" points="164.62,210.41 126.42,172.21 145.52,153.1 164.62,172.21 183.72,191.31 "/>
<polygon class="st0" points="145.52,267.71 126.42,248.61 145.52,229.51 164.62,210.41 183.72,229.51 164.62,248.61 "/>
<polygon class="st1" points="107.32,267.71 88.22,248.61 69.12,229.51 50.02,210.41 88.22,172.21 107.32,153.1 126.42,172.21 
	88.22,210.41 107.32,229.51 126.42,248.61 "/>
</svg>
